<svg viewBox="0 0 690 1475" xmlns="http://www.w3.org/2000/svg" fill-rule="evenodd" clip-rule="evenodd" stroke-linecap="round" stroke-linejoin="round"><path d="M687 104C687 48.808 642.192 4 587 4H103C47.808 4 3 48.808 3 104v1267c0 55.19 44.808 100 100 100h484c55.192 0 100-44.81 100-100V104zm-29 56c0-30.355-24.645-55-55-55H83c-30.355 0-55 24.645-55 55v1200c0 30.36 24.645 55 55 55h520c30.355 0 55-24.64 55-55V160z" stroke="#ddd" stroke-width="4"/><circle cx="190.56" cy="68.889" r="10" fill="none" stroke="#444" stroke-width="3"/><path d="M389 66.5c0-2.76-2.24-5-5-5h-70c-2.76 0-5 2.24-5 5V69c0 2.76 2.24 5 5 5h70c2.76 0 5-2.24 5-5v-2.5z" fill="none" stroke="#444" stroke-width="3"/></svg>