<?xml version="1.0" encoding="UTF-8" standalone="no"?><!DOCTYPE svg PUBLIC "-//W3C//DTD SVG 1.1//EN" "http://www.w3.org/Graphics/SVG/1.1/DTD/svg11.dtd"><svg width="100%" height="100%" viewBox="0 0 180 39" version="1.1" xmlns="http://www.w3.org/2000/svg" xmlns:xlink="http://www.w3.org/1999/xlink" xml:space="preserve" xmlns:serif="http://www.serif.com/" style="fill-rule:evenodd;clip-rule:evenodd;stroke-linejoin:round;stroke-miterlimit:1.41421;"><g><g id="XMLID_1_"><path id="XMLID_2_" d="M62.213,31.237c-1.238,0 -2.363,-0.224 -3.375,-0.787c-1.013,-0.45 -1.913,-1.125 -2.588,-2.025c-0.675,-0.788 -1.238,-1.8 -1.688,-2.813c-0.45,-1.125 -0.562,-2.137 -0.562,-3.262c0,-1.125 0.225,-2.25 0.675,-3.375c0.45,-1.125 1.013,-2.025 1.8,-2.813c0.787,-0.787 1.575,-1.462 2.588,-1.912c1.012,-0.45 2.137,-0.675 3.262,-0.675c1.238,0 2.363,0.225 3.375,0.787c1.013,0.563 1.912,1.238 2.588,2.025c0.675,0.788 1.237,1.8 1.687,2.813c0.45,1.012 0.563,2.137 0.563,3.262c0,1.125 -0.225,2.25 -0.675,3.375c-0.45,1.125 -1.013,2.025 -1.688,2.813c-0.787,0.787 -1.575,1.462 -2.587,1.912c-1.125,0.45 -2.25,0.675 -3.375,0.675Zm-6.525,-8.887c0,1.012 0.112,1.912 0.45,2.812c0.337,0.9 0.787,1.688 1.349,2.363c0.563,0.675 1.238,1.237 2.026,1.687c0.787,0.45 1.687,0.563 2.7,0.563c1.012,0 1.912,-0.225 2.7,-0.675c0.787,-0.45 1.462,-1.013 2.025,-1.688c0.562,-0.675 1.012,-1.462 1.35,-2.362c0.337,-0.9 0.45,-1.8 0.45,-2.7c0,-0.9 -0.113,-1.913 -0.45,-2.813c-0.338,-0.9 -0.788,-1.687 -1.35,-2.362c-0.563,-0.675 -1.238,-1.238 -2.025,-1.575c-0.788,-0.45 -1.688,-0.563 -2.588,-0.563c-1.012,0 -1.912,0.225 -2.7,0.675c-0.788,0.45 -1.462,1.013 -2.025,1.688c-0.562,0.675 -1.013,1.462 -1.35,2.362c-0.45,0.788 -0.562,1.688 -0.562,2.588Z" style="fill:#e44a49;fill-rule:nonzero;"/><path id="XMLID_5_" d="M84.938,31.125l-1.688,0l0,-7.2c0,-1.575 -0.225,-2.7 -0.675,-3.375c-0.45,-0.675 -1.125,-1.013 -2.025,-1.013c-0.45,0 -1.013,0.113 -1.463,0.225c-0.45,0.225 -1.012,0.45 -1.35,0.788c-0.45,0.337 -0.787,0.675 -1.125,1.125c-0.337,0.45 -0.562,0.9 -0.675,1.462l0,7.875l-1.687,0l0,-12.825l1.462,0l0,2.925c0.225,-0.45 0.563,-0.9 1.013,-1.237c0.338,-0.338 0.787,-0.675 1.35,-1.013c0.45,-0.225 1.012,-0.45 1.575,-0.675c0.562,-0.112 1.125,-0.224 1.687,-0.224c0.675,0 1.35,0.112 1.8,0.449c0.45,0.225 0.901,0.675 1.126,1.125c0.224,0.45 0.562,1.013 0.674,1.8c0.113,0.675 0.225,1.463 0.225,2.25l0,7.538l-0.225,0Z" style="fill:#e44a49;fill-rule:nonzero;"/><path id="XMLID_7_" d="M94.838,31.35c-0.901,0 -1.8,-0.225 -2.588,-0.563c-0.788,-0.337 -1.463,-0.787 -2.025,-1.462c-0.563,-0.675 -1.013,-1.35 -1.35,-2.138c-0.338,-0.787 -0.45,-1.687 -0.45,-2.587c0,-0.9 0.112,-1.8 0.45,-2.588c0.337,-0.787 0.787,-1.462 1.35,-2.137c0.562,-0.563 1.237,-1.125 2.025,-1.463c0.788,-0.337 1.687,-0.562 2.587,-0.562c0.901,0 1.8,0.225 2.588,0.562c0.788,0.338 1.463,0.788 2.025,1.463c0.563,0.562 1.013,1.35 1.35,2.137c0.338,0.788 0.45,1.688 0.45,2.475l0,0.675l-11.025,0c0,0.675 0.225,1.35 0.45,1.913c0.225,0.562 0.563,1.125 1.013,1.575c0.45,0.45 0.9,0.787 1.462,1.012c0.563,0.225 1.125,0.338 1.8,0.338c0.45,0 0.9,-0.113 1.238,-0.225c0.45,-0.113 0.787,-0.225 1.125,-0.45c0.337,-0.225 0.675,-0.45 0.9,-0.675c0.225,-0.338 0.45,-0.563 0.675,-0.9l1.462,0.45c-0.225,0.45 -0.45,0.9 -0.787,1.35c-0.338,0.337 -0.788,0.675 -1.238,1.012c-0.45,0.338 -1.012,0.563 -1.575,0.675c-0.788,0.113 -1.35,0.113 -1.913,0.113Zm4.725,-7.313c0,-0.675 -0.225,-1.35 -0.45,-1.912c-0.224,-0.563 -0.562,-1.013 -1.012,-1.463c-0.45,-0.45 -0.9,-0.787 -1.463,-1.012c-0.562,-0.225 -1.125,-0.338 -1.8,-0.338c-0.675,0 -1.237,0.113 -1.8,0.338c-0.562,0.225 -1.012,0.562 -1.462,1.012c-0.45,0.45 -0.788,0.9 -1.013,1.463c-0.225,0.562 -0.45,1.237 -0.45,1.912l9.45,0Z" style="fill:#e44a49;fill-rule:nonzero;"/><path id="XMLID_10_" d="M114.975,18.187c-0.112,-0.112 -0.337,-0.225 -0.675,-0.45c-0.337,-0.225 -0.675,-0.337 -1.125,-0.562c-0.45,-0.225 -0.9,-0.338 -1.463,-0.45c-0.562,-0.113 -1.012,-0.225 -1.575,-0.225c-0.9,0 -1.687,0.225 -2.137,0.562c-0.45,0.338 -0.675,0.788 -0.675,1.463c0,0.337 0.112,0.675 0.225,0.9c0.225,0.225 0.45,0.45 0.787,0.675c0.338,0.225 0.788,0.337 1.238,0.45c0.45,0.112 1.125,0.337 1.8,0.45c0.9,0.225 1.687,0.45 2.362,0.787c0.675,0.225 1.35,0.563 1.8,1.013c0.45,0.45 0.9,0.9 1.125,1.462c0.225,0.563 0.45,1.238 0.45,2.026c0,0.899 -0.225,1.799 -0.562,2.362c-0.338,0.675 -0.788,1.238 -1.463,1.575c-0.562,0.45 -1.237,0.675 -2.025,0.9c-0.787,0.225 -1.575,0.338 -2.475,0.338c-1.35,0 -2.587,-0.226 -3.937,-0.563c-1.238,-0.45 -2.475,-1.012 -3.488,-1.688l1.463,-2.924c0.112,0.112 0.45,0.337 0.787,0.562c0.338,0.225 0.9,0.45 1.35,0.675c0.563,0.225 1.125,0.45 1.8,0.562c0.675,0.113 1.35,0.225 2.025,0.225c1.913,0 2.813,-0.562 2.813,-1.8c0,-0.45 -0.113,-0.675 -0.338,-1.012c-0.225,-0.225 -0.562,-0.45 -0.9,-0.675c-0.45,-0.225 -0.9,-0.338 -1.462,-0.563c-0.563,-0.112 -1.238,-0.337 -1.913,-0.562c-0.787,-0.225 -1.575,-0.45 -2.137,-0.788c-0.675,-0.225 -1.125,-0.562 -1.575,-0.9c-0.45,-0.337 -0.675,-0.787 -0.9,-1.237c-0.225,-0.45 -0.338,-1.125 -0.338,-1.8c0,-0.9 0.113,-1.688 0.45,-2.363c0.338,-0.675 0.788,-1.237 1.35,-1.687c0.563,-0.45 1.238,-0.788 2.025,-1.013c0.788,-0.225 1.575,-0.337 2.475,-0.337c1.238,0 2.363,0.225 3.375,0.562c1.013,0.338 1.913,0.9 2.7,1.35l-1.237,2.7Z" style="fill:#515151;fill-rule:nonzero;"/><path id="XMLID_12_" d="M120.038,16.387l0,-3.262l3.262,0l0,3.262l-3.262,0Zm0,14.738l0,-12.938l3.262,0l0,12.938l-3.262,0Z" style="fill:#515151;fill-rule:nonzero;"/><path id="XMLID_15_" d="M131.963,31.237c-0.9,0 -1.688,-0.224 -2.363,-0.562c-0.675,-0.338 -1.35,-0.787 -1.8,-1.463c-0.562,-0.562 -0.9,-1.35 -1.237,-2.137c-0.225,-0.787 -0.45,-1.688 -0.45,-2.475c0,-0.9 0.112,-1.8 0.45,-2.588c0.337,-0.787 0.675,-1.462 1.237,-2.137c0.563,-0.563 1.125,-1.125 1.913,-1.463c0.787,-0.337 1.575,-0.562 2.475,-0.562c1.012,0 1.912,0.225 2.7,0.675c0.787,0.45 1.35,1.012 1.912,1.8l0,-2.25l2.925,0l0,12.375c0,1.013 -0.225,1.8 -0.563,2.588c-0.337,0.787 -0.9,1.349 -1.462,1.912c-0.563,0.563 -1.35,0.9 -2.25,1.238c-0.9,0.225 -1.8,0.45 -2.925,0.45c-1.463,-0.001 -2.588,-0.225 -3.6,-0.675c-1.012,-0.451 -1.8,-1.126 -2.475,-2.026l1.8,-1.8c0.45,0.563 1.125,1.125 1.912,1.463c0.788,0.337 1.575,0.562 2.363,0.562c0.562,0 1.012,-0.112 1.462,-0.225c0.45,-0.112 0.9,-0.337 1.238,-0.675c0.337,-0.337 0.675,-0.675 0.787,-1.125c0.225,-0.45 0.338,-1.012 0.338,-1.687l0,-1.575c-0.45,0.787 -1.013,1.35 -1.8,1.688c-0.787,0.337 -1.687,0.674 -2.587,0.674Zm1.237,-2.7c0.338,0 0.675,-0.112 1.013,-0.224c0.337,-0.113 0.674,-0.226 0.9,-0.451c0.225,-0.224 0.562,-0.449 0.674,-0.674c0.225,-0.226 0.338,-0.563 0.451,-0.788l0,-3.15c-0.338,-0.788 -0.788,-1.35 -1.35,-1.8c-0.675,-0.45 -1.238,-0.675 -2.025,-0.675c-0.563,0 -1.013,0.112 -1.35,0.337c-0.338,0.226 -0.788,0.563 -1.125,0.901c-0.338,0.337 -0.563,0.787 -0.675,1.237c-0.113,0.45 -0.225,1.012 -0.225,1.462c0,0.563 0.112,1.013 0.225,1.463c0.225,0.45 0.45,0.9 0.787,1.238c0.338,0.337 0.675,0.562 1.125,0.787c0.562,0.225 1.012,0.337 1.575,0.337Z" style="fill:#515151;fill-rule:nonzero;"/><path id="XMLID_18_" d="M155.25,31.125l-3.262,0l0,-7.313c0,-1.012 -0.225,-1.8 -0.563,-2.25c-0.338,-0.45 -0.9,-0.675 -1.463,-0.675c-0.337,0 -0.675,0.113 -1.012,0.225c-0.338,0.113 -0.675,0.338 -1.013,0.563c-0.337,0.225 -0.562,0.562 -0.787,0.9c-0.225,0.337 -0.45,0.675 -0.563,1.125l0,7.537l-3.375,0l0,-13.05l3.038,0l0,2.363c0.45,-0.788 1.125,-1.463 2.025,-1.913c0.9,-0.45 1.912,-0.674 3.037,-0.674c0.788,0 1.463,0.112 2.025,0.449c0.563,0.338 0.9,0.675 1.238,1.125c0.337,0.45 0.45,1.013 0.562,1.688c0.113,0.562 0.113,1.238 0.113,1.912l0,7.988Z" style="fill:#515151;fill-rule:nonzero;"/><path id="XMLID_20_" d="M162.338,31.35c-0.675,0 -1.238,-0.113 -1.8,-0.338c-0.563,-0.224 -1.013,-0.45 -1.463,-0.9c-0.45,-0.337 -0.675,-0.787 -0.9,-1.35c-0.225,-0.45 -0.338,-1.012 -0.338,-1.687c0,-0.563 0.113,-1.125 0.451,-1.688c0.225,-0.562 0.674,-1.012 1.125,-1.35c0.45,-0.337 1.125,-0.675 1.799,-0.9c0.675,-0.225 1.463,-0.337 2.25,-0.337c0.563,0 1.125,0 1.688,0.112c0.563,0.113 1.013,0.225 1.463,0.45l0,-0.787c0,-0.9 -0.225,-1.463 -0.675,-2.025c-0.45,-0.563 -1.238,-0.675 -2.138,-0.675c-0.675,0 -1.35,0.112 -2.025,0.337c-0.675,0.225 -1.35,0.563 -2.025,1.125l-1.012,-2.137c1.687,-1.125 3.487,-1.688 5.4,-1.688c1.912,0 3.262,0.45 4.387,1.35c1.013,0.9 1.575,2.25 1.575,3.938l0,4.05c0,0.337 0.113,0.562 0.225,0.787c0.113,0.113 0.338,0.225 0.675,0.225l0,2.813c-0.337,0.113 -0.562,0.113 -0.9,0.113c-0.337,0 -0.562,0 -0.675,0c-0.675,0 -1.125,-0.113 -1.462,-0.451c-0.338,-0.337 -0.563,-0.675 -0.563,-1.125l-0.112,-0.675c-0.563,0.788 -1.238,1.35 -2.138,1.688c-1.012,0.9 -1.912,1.125 -2.812,1.125Zm0.9,-2.363c0.562,0 1.125,-0.112 1.575,-0.337c0.45,-0.225 0.9,-0.45 1.125,-0.788c0.337,-0.224 0.562,-0.562 0.562,-0.899l0,-1.463c-0.45,-0.113 -0.787,-0.225 -1.237,-0.338c-0.45,-0.112 -0.9,-0.112 -1.35,-0.112c-0.9,0 -1.575,0.225 -2.138,0.563c-0.562,0.337 -0.787,0.899 -0.787,1.462c0,0.563 0.225,1.013 0.675,1.35c0.45,0.337 1.012,0.563 1.575,0.563Z" style="fill:#515151;fill-rule:nonzero;"/><path id="XMLID_23_" d="M173.588,13.012l3.262,0l0,13.725c0,1.013 0.45,1.463 1.35,1.463c0.225,0 0.338,0 0.675,-0.113c0.225,-0.112 0.45,-0.112 0.675,-0.225l0.45,2.7c-0.45,0.225 -1.012,0.338 -1.575,0.45c-0.563,0.113 -1.125,0.225 -1.575,0.225c-1.013,0 -1.8,-0.225 -2.363,-0.787c-0.562,-0.563 -0.9,-1.35 -0.9,-2.363l0,-15.075Z" style="fill:#515151;fill-rule:nonzero;"/></g><path id="XMLID_8438_" d="M20.813,0.75c-11.475,0 -20.813,9.337 -20.813,20.812c0,7.313 3.825,13.726 9.45,17.438c0.338,-0.225 0.675,-0.45 1.013,-0.675c0.225,-0.113 0.562,-0.338 0.787,-0.45c0.338,-0.113 0.675,-0.337 0.9,-0.45c0.338,-0.112 0.675,-0.225 1.013,-0.45c0.225,-0.112 0.562,-0.225 0.787,-0.337c0.338,-0.113 0.788,-0.225 1.125,-0.338c0.338,-0.112 0.563,-0.112 0.9,-0.225c0.338,-0.112 0.563,-0.112 0.9,-0.225c0.338,-0.112 0.675,-0.112 1.013,-0.112c0.337,0 0.787,-0.113 1.125,-0.113l0,-1.35l0,-1.125l0,-4.612l0,-1.125l0,-4.163l-1.125,0l0,-2.25l5.625,0l0,14.85c3.15,0.45 5.962,1.575 8.55,3.15c5.737,-3.712 9.45,-10.125 9.45,-17.437c0.112,-11.475 -9.225,-20.813 -20.701,-20.813Zm6.188,20.813c0,-3.375 -2.813,-6.188 -6.188,-6.188c-3.375,0 -6.187,2.813 -6.187,6.188c0,2.362 1.35,4.5 3.375,5.512l0,1.238c-2.587,-1.125 -4.5,-3.713 -4.5,-6.75c0,-4.05 3.263,-7.313 7.312,-7.313c4.05,0 7.313,3.263 7.313,7.313c0,2.587 -1.35,4.837 -3.375,6.187l0,-1.35c1.35,-1.237 2.25,-2.925 2.25,-4.837Zm-2.25,12.262l0,-1.237c4.613,-1.575 7.875,-5.963 7.875,-11.138c0,-6.412 -5.287,-11.7 -11.813,-11.7c-6.524,0 -11.812,5.288 -11.812,11.813c0,5.512 3.825,10.237 9,11.475l0,1.125c-5.737,-1.238 -10.125,-6.413 -10.125,-12.6c0,-7.2 5.737,-12.938 12.938,-12.938c7.2,0 12.937,5.738 12.937,12.938c0,5.737 -3.825,10.687 -9,12.262Z" style="fill:#e44a49;fill-rule:nonzero;"/></g></svg>