<svg viewBox="0 0 1000 1000" xmlns="http://www.w3.org/2000/svg" fill-rule="evenodd" clip-rule="evenodd" stroke-linecap="round" stroke-linejoin="round" stroke-miterlimit="1.5"><path d="M836.548 666.427C775.23 669.366 641.399 722.886 500 723.294c-129.178.373-265.655-52.184-338.976-53.374-56.876-.923-50.846 92.575 8.235 95.546 55.854 2.808 71.939-81.363 73.041-132.091 1.629-74.984-55.002-211.485 20.633-321.416 71.815-104.379 143.485-79.242 176.146-121.257 35.026-45.056 13.785-82.227 63.511-81.699 46.114.491 24.161 34.225 54.793 77.616 16.417 23.255 76.293 24.294 163.567 105.256 73.436 68.125 29.515 240.477 32.348 342.292 1.961 70.451 25.794 122.746 72.947 123.047 53.155.339 57.698-93.059 10.303-90.787zM422.696 782.468c-.097 29.453 15.32 67.168 77.827 67.364 70.223.22 75.867-41.103 76.781-68.721" fill="none" stroke="currentColor" stroke-width="50"/></svg>