<svg viewBox="0 0 1000 1000" xmlns="http://www.w3.org/2000/svg" fill-rule="evenodd" clip-rule="evenodd" stroke-linecap="round" stroke-linejoin="round" stroke-miterlimit="1.5"><path d="M345.673 680.192c-174.59 37.394-282.494-49.873-268.102-178.406 25.262-225.618 367.053-147.759 282.965-66.316-87.092 84.354-148.978-255.088 144.151-250.199 239.836 4 229.285 318.684 138.9 252.239-89.776-65.997 205.376-185.197 273.204 35.851 33.765 110.037-56.268 240.255-264.895 210.308-2.11-.303-4.277-.012-6.436-.029M611 552.552c-25.111 29.792-217.547 242.271-234.369 262.229m5.852-262.229c14.743 15.589 228.643 245.561 244.407 262.229" fill="none" stroke="currentColor" stroke-width="50"/></svg>