<svg viewBox="0 0 180 39" xmlns="http://www.w3.org/2000/svg" fill-rule="evenodd" clip-rule="evenodd" stroke-linejoin="round" stroke-miterlimit="1.414"><g fill-rule="nonzero"><path d="M62.213 31.237c-1.238 0-2.363-.224-3.375-.787-1.013-.45-1.913-1.125-2.588-2.025-.675-.788-1.238-1.8-1.688-2.813-.45-1.125-.562-2.137-.562-3.262s.225-2.25.675-3.375c.45-1.125 1.013-2.025 1.8-2.813.787-.787 1.575-1.462 2.588-1.912a8.066 8.066 0 0 1 3.262-.675c1.238 0 2.363.225 3.375.787 1.013.563 1.912 1.238 2.588 2.025.675.788 1.237 1.8 1.687 2.813.45 1.012.563 2.137.563 3.262s-.225 2.25-.675 3.375a9.846 9.846 0 0 1-1.688 2.813c-.787.787-1.575 1.462-2.587 1.912-1.125.45-2.25.675-3.375.675zm-6.525-8.887c0 1.012.112 1.912.45 2.812.337.9.787 1.688 1.349 2.363a7.37 7.37 0 0 0 2.026 1.687c.787.45 1.687.563 2.7.563 1.012 0 1.912-.225 2.7-.675a7.384 7.384 0 0 0 2.025-1.688 8.112 8.112 0 0 0 1.35-2.362c.337-.9.45-1.8.45-2.7 0-.9-.113-1.913-.45-2.813a8.112 8.112 0 0 0-1.35-2.362c-.563-.675-1.238-1.238-2.025-1.575-.788-.45-1.688-.563-2.588-.563-1.012 0-1.912.225-2.7.675A7.37 7.37 0 0 0 57.6 17.4a8.09 8.09 0 0 0-1.35 2.362c-.45.788-.562 1.688-.562 2.588zM84.938 31.125H83.25v-7.2c0-1.575-.225-2.7-.675-3.375-.45-.675-1.125-1.013-2.025-1.013-.45 0-1.013.113-1.463.225-.45.225-1.012.45-1.35.788-.45.337-.787.675-1.125 1.125-.337.45-.562.9-.675 1.462v7.875H74.25V18.187h1.462v2.925c.225-.45.563-.9 1.013-1.237.338-.338.787-.675 1.35-1.013.45-.225 1.012-.45 1.575-.675.562-.112 1.125-.224 1.687-.224.675 0 1.35.112 1.8.449.45.225.901.675 1.126 1.125.224.45.562 1.013.674 1.8.113.675.225 1.463.225 2.25v7.538h-.225zM94.838 31.35c-.901 0-1.8-.225-2.588-.563-.788-.337-1.463-.787-2.025-1.462-.563-.675-1.013-1.35-1.35-2.138-.338-.787-.45-1.687-.45-2.587 0-.9.112-1.8.45-2.588.337-.787.787-1.462 1.35-2.137.562-.563 1.237-1.125 2.025-1.463.788-.337 1.687-.562 2.587-.562.901 0 1.8.225 2.588.562.788.338 1.463.788 2.025 1.463.563.562 1.013 1.35 1.35 2.137.338.788.45 1.688.45 2.475v.675H90.225c0 .675.225 1.35.45 1.913a4.725 4.725 0 0 0 1.013 1.575c.45.45.9.787 1.462 1.012a4.666 4.666 0 0 0 1.8.338c.45 0 .9-.113 1.238-.225.45-.113.787-.225 1.125-.45.337-.225.675-.45.9-.675.225-.338.45-.563.675-.9l1.462.45c-.225.45-.45.9-.787 1.35-.338.337-.788.675-1.238 1.012-.45.338-1.012.563-1.575.675-.788.113-1.35.113-1.913.113zm4.725-7.313c0-.675-.225-1.35-.45-1.912-.224-.563-.562-1.013-1.012-1.463-.45-.45-.9-.787-1.463-1.012a4.662 4.662 0 0 0-1.8-.338c-.675 0-1.237.113-1.8.338-.562.225-1.012.562-1.462 1.012-.45.45-.788.9-1.013 1.463-.225.562-.45 1.237-.45 1.912h9.45z" fill="#e44a49"/><path d="M114.975 18.187c-.112-.112-.337-.225-.675-.45-.337-.225-.675-.337-1.125-.562-.45-.225-.9-.338-1.463-.45-.562-.113-1.012-.225-1.575-.225-.9 0-1.687.225-2.137.562-.45.338-.675.788-.675 1.463 0 .337.112.675.225.9.225.225.45.45.787.675.338.225.788.337 1.238.45.45.112 1.125.337 1.8.45.9.225 1.687.45 2.362.787.675.225 1.35.563 1.8 1.013.45.45.9.9 1.125 1.462.225.563.45 1.238.45 2.026 0 .899-.225 1.799-.562 2.362-.338.675-.788 1.238-1.463 1.575-.562.45-1.237.675-2.025.9a8.77 8.77 0 0 1-2.475.338c-1.35 0-2.587-.226-3.937-.563-1.238-.45-2.475-1.012-3.488-1.688l1.463-2.924c.112.112.45.337.787.562.338.225.9.45 1.35.675.563.225 1.125.45 1.8.562.675.113 1.35.225 2.025.225 1.913 0 2.813-.562 2.813-1.8 0-.45-.113-.675-.338-1.012-.225-.225-.562-.45-.9-.675-.45-.225-.9-.338-1.462-.563-.563-.112-1.238-.337-1.913-.562-.787-.225-1.575-.45-2.137-.788-.675-.225-1.125-.562-1.575-.9-.45-.337-.675-.787-.9-1.237-.225-.45-.338-1.125-.338-1.8 0-.9.113-1.688.45-2.363a4.991 4.991 0 0 1 1.35-1.687c.563-.45 1.238-.788 2.025-1.013a8.776 8.776 0 0 1 2.475-.337c1.238 0 2.363.225 3.375.562 1.013.338 1.913.9 2.7 1.35l-1.237 2.7zM120.038 16.387v-3.262h3.262v3.262h-3.262zm0 14.738V18.187h3.262v12.938h-3.262zM131.963 31.237c-.9 0-1.688-.224-2.363-.562-.675-.338-1.35-.787-1.8-1.463-.562-.562-.9-1.35-1.237-2.137-.225-.787-.45-1.688-.45-2.475 0-.9.112-1.8.45-2.588.337-.787.675-1.462 1.237-2.137.563-.563 1.125-1.125 1.913-1.463.787-.337 1.575-.562 2.475-.562 1.012 0 1.912.225 2.7.675.787.45 1.35 1.012 1.912 1.8v-2.25h2.925V30.45c0 1.013-.225 1.8-.563 2.588-.337.787-.9 1.349-1.462 1.912-.563.563-1.35.9-2.25 1.238-.9.225-1.8.45-2.925.45-1.463-.001-2.588-.225-3.6-.675-1.012-.451-1.8-1.126-2.475-2.026l1.8-1.8a5.102 5.102 0 0 0 1.912 1.463c.788.337 1.575.562 2.363.562.562 0 1.012-.112 1.462-.225.45-.112.9-.337 1.238-.675.337-.337.675-.675.787-1.125.225-.45.338-1.012.338-1.687v-1.575c-.45.787-1.013 1.35-1.8 1.688-.787.337-1.687.674-2.587.674zm1.237-2.7c.338 0 .675-.112 1.013-.224.337-.113.674-.226.9-.451.225-.224.562-.449.674-.674.225-.226.338-.563.451-.788v-3.15c-.338-.788-.788-1.35-1.35-1.8-.675-.45-1.238-.675-2.025-.675-.563 0-1.013.112-1.35.337a7.871 7.871 0 0 0-1.125.901 2.669 2.669 0 0 0-.675 1.237c-.113.45-.225 1.012-.225 1.462 0 .563.112 1.013.225 1.463.225.45.45.9.787 1.238.338.337.675.562 1.125.787.562.225 1.012.337 1.575.337zM155.25 31.125h-3.262v-7.313c0-1.012-.225-1.8-.563-2.25-.338-.45-.9-.675-1.463-.675-.337 0-.675.113-1.012.225-.338.113-.675.338-1.013.563-.337.225-.562.562-.787.9-.225.337-.45.675-.563 1.125v7.537h-3.375v-13.05h3.038v2.363a4.764 4.764 0 0 1 2.025-1.913c.9-.45 1.912-.674 3.037-.674.788 0 1.463.112 2.025.449.563.338.9.675 1.238 1.125.337.45.45 1.013.562 1.688.113.562.113 1.238.113 1.912v7.988zM162.338 31.35a4.662 4.662 0 0 1-1.8-.338c-.563-.224-1.013-.45-1.463-.9-.45-.337-.675-.787-.9-1.35-.225-.45-.338-1.012-.338-1.687 0-.563.113-1.125.451-1.688.225-.562.674-1.012 1.125-1.35.45-.337 1.125-.675 1.799-.9.675-.225 1.463-.337 2.25-.337.563 0 1.125 0 1.688.112.563.113 1.013.225 1.463.45v-.787c0-.9-.225-1.463-.675-2.025-.45-.563-1.238-.675-2.138-.675a6.37 6.37 0 0 0-2.025.337 6.11 6.11 0 0 0-2.025 1.125l-1.012-2.137c1.687-1.125 3.487-1.688 5.4-1.688 1.912 0 3.262.45 4.387 1.35 1.013.9 1.575 2.25 1.575 3.938v4.05c0 .337.113.562.225.787.113.113.338.225.675.225v2.813c-.337.113-.562.113-.9.113h-.675c-.675 0-1.125-.113-1.462-.451-.338-.337-.563-.675-.563-1.125l-.112-.675c-.563.788-1.238 1.35-2.138 1.688-1.012.9-1.912 1.125-2.812 1.125zm.9-2.363c.562 0 1.125-.112 1.575-.337.45-.225.9-.45 1.125-.788.337-.224.562-.562.562-.899V25.5c-.45-.113-.787-.225-1.237-.338-.45-.112-.9-.112-1.35-.112-.9 0-1.575.225-2.138.563-.562.337-.787.899-.787 1.462s.225 1.013.675 1.35c.45.337 1.012.563 1.575.563zM173.588 13.012h3.262v13.725c0 1.013.45 1.463 1.35 1.463.225 0 .338 0 .675-.113.225-.112.45-.112.675-.225l.45 2.7c-.45.225-1.012.338-1.575.45-.563.113-1.125.225-1.575.225-1.013 0-1.8-.225-2.363-.787-.562-.563-.9-1.35-.9-2.363V13.012z" fill="#515151"/><path d="M20.813.75C9.338.75 0 10.087 0 21.562 0 28.875 3.825 35.288 9.45 39l1.013-.675c.225-.113.562-.338.787-.45.338-.113.675-.337.9-.45.338-.112.675-.225 1.013-.45.225-.112.562-.225.787-.337.338-.113.788-.225 1.125-.338.338-.112.563-.112.9-.225.338-.112.563-.112.9-.225.338-.112.675-.112 1.013-.112.337 0 .787-.113 1.125-.113V23.25h-1.125V21h5.625v14.85c3.15.45 5.962 1.575 8.55 3.15 5.737-3.712 9.45-10.125 9.45-17.437C41.625 10.088 32.288.75 20.812.75zm6.188 20.813c0-3.375-2.813-6.188-6.188-6.188-3.375 0-6.187 2.813-6.187 6.188 0 2.362 1.35 4.5 3.375 5.512v1.238c-2.587-1.125-4.5-3.713-4.5-6.75a7.299 7.299 0 0 1 7.312-7.313 7.299 7.299 0 0 1 7.313 7.313c0 2.587-1.35 4.837-3.375 6.187V26.4c1.35-1.237 2.25-2.925 2.25-4.837zm-2.25 12.262v-1.237c4.613-1.575 7.875-5.963 7.875-11.138 0-6.412-5.287-11.7-11.813-11.7-6.524 0-11.812 5.288-11.812 11.813 0 5.512 3.825 10.237 9 11.475v1.125c-5.737-1.238-10.125-6.413-10.125-12.6 0-7.2 5.737-12.938 12.938-12.938 7.2 0 12.937 5.738 12.937 12.938 0 5.737-3.825 10.687-9 12.262z" fill="#e44a49"/></g></svg>